[img]http://www.pix2links.com/image/r6MUh.png[/img]
[img]http://img199.imageshack.us/img199/9106/bodyguard2011lpresent.jpg[/img]
*******************************************************************************
Bodyguard-[2011]-Blu-ray-720p-Esubs-x264-5.1CH-SiNiSTER-TDT 
*******************************************************************************
-------------------------------------------------------------------------------
 General Information
-------------------------------------------------------------------------------
General
Unique ID : 206092913683200034838769847931393063300 (0x9B0C0D272A0BA9EEAB3FA405E458B984)
Complete name : D:Bodyguard-[2011]-Blu-ray-720p-Esubs-x264-5.1CH-SiNiSTER-TDTBodyguard-[2011]-Blu-ray-720p-Esubs-x264-5.1CH-SiNiSTER-TDT.mkv
Format : Matroska
File size : 936 MiB
Duration : 2h 10mn
Overall bit rate : 1 001 Kbps
Movie name : Bodyguard-[2011]-Blu-ray-rip-720p-Esubs-x264-5.1CH-SiNiSTER-TDT
Encoded date : UTC 2011-11-15 12:13:43
Writing application : mkvmerge v4.3.0 ('Escape from the Island') built on Sep 5 2010 10:30:51
Writing library : libebml v1.0.0 + libmatroska v1.0.0
Encoder : Ranger_tdt
[img]http://www.pix2links.com/images/20349311072267311198.png[/img]
Video
ID : 1
Format : AVC
Format/Info : Advanced Video Codec
Format profile : High@L3.1
Format settings, CABAC : Yes
Format settings, ReFrames : 4 frames
Muxing mode : Header stripping
Codec ID : V_MPEG4/ISO/AVC
Duration : 2h 10mn
Bit rate : 872 Kbps
Width : 1 280 pixels
Height : 544 pixels
Display aspect ratio : 2.35:1
Frame rate : 23.976 fps
Color space : YUV
Chroma subsampling : 4:2:0
Bit depth : 8 bits
Scan type : Progressive
Bits/(Pixel*Frame) : 0.052
Stream size : 798 MiB (85%)
Title : Ranger_tdt
Writing library : x264 core 116 r2074 2641b9e
Encoding settings : cabac=1 / ref=1 / deblock=1:-2:-1 / analyse=0x3:0x113 / me=hex / subme=4 / psy=1 / psy_rd=1.00:0.00 / mixed_ref=0 / me_range=8 / chroma_me=1 / trellis=0 / 8x8dct=1 / cqm=0 / deadzone=21,11 / fast_pskip=1 / chroma_qp_offset=0 / threads=12 / sliced_threads=0 / nr=0 / decimate=1 / interlaced=0 / bluray_compat=0 / constrained_intra=0 / bframes=16 / b_pyramid=2 / b_adapt=1 / b_bias=0 / direct=3 / weightb=1 / open_gop=0 / weightp=2 / keyint=250 / keyint_min=23 / scenecut=40 / intra_refresh=0 / rc=2pass / mbtree=0 / bitrate=872 / ratetol=1.0 / qcomp=0.60 / qpmin=10 / qpmax=51 / qpstep=4 / cplxblur=20.0 / qblur=0.5 / ip_ratio=1.40 / pb_ratio=1.30 / aq=2:1.00
[img]http://www.pix2links.com/images/97620169951974180344.png[/img]
Audio
ID : 2
Format : AC-3
Format/Info : Audio Coding 3
Mode extension : CM (complete main)
Muxing mode : Header stripping
Codec ID : A_AC3
Duration : 2h 10mn
Bit rate mode : Constant
Bit rate : 128 Kbps
Channel(s) : 6 channels
Channel positions : Front: L C R, Side: L R, LFE
Sampling rate : 48.0 KHz
Bit depth : 16 bits
Compression mode : Lossy
Delay relative to video : 1s 100ms
Stream size : 120 MiB (13%)
Title : Ranger_tdt
Video Source : DDR thanks 
Audio Source: DDR thanks
Special thnx to DET :-)
Greets(TDT):
Team TDT,Chaos,DDR,DET,HDDR,DUS,ExD,TNT,XMR,IcTV..etc
Greets(SiNiSTER):
DarkScene,HDScene,Noir,Chaos,CrEwSaDe,blackjesus,ViSiON,HDLiTE,UnKnOwN,EP1C,IMAGiNE,
FLAWL3SS,Rx,ELEKTRI4KA,CiNEDUB,BDK,SAFCuk009,HiVE-CM8..... and everybody else we 
respect.. u know who u are
-------------------------------------------------------------------------------
 Post Information
-------------------------------------------------------------------------------
Encoded by...........: SiNiSTER & TDT its a combined release of Both the groups.
 
Have sumthing to offer..looking for suppliers... cammers,cams,screeners, audio
supplier.. and any pre retail DVD/BR any RC...if u can provide any email us at
sinister@hushmail.me
-------------------------------------------------------------------------------
 ScreenShots
------------------------------------------------------------------------------- 
http://www.pix2links.com/image/HIfNU.png 
http://www.pix2links.com/image/IULYV.png 
http://www.pix2links.com/image/fvWam.png 
http://www.pix2links.com/image/cBQW.png 
http://www.pix2links.com/image/3i6dW.png 
http://www.pix2links.com/image/JS70h.png 
http://www.pix2links.com/image/4lgks.png 
http://www.pix2links.com/image/yt6B.png
Enjoy guysss :P
-------------------------------------------------------------------------------
Generated with Cool NFO Creator - http://fly.to/coolbeans
-------------------------------------------------------------------------------
[img]http://www.pix2links.com/images/33502453931372952618.gif[/img]
[color=red][size=5]Guys Sample is Included in the torrent so plz download it first to check the quality[/size][/color]